<?xml version="1.0" encoding="utf-8"?>
<!-- Generator: Adobe Illustrator 26.3.1, SVG Export Plug-In . SVG Version: 6.00 Build 0)  -->
<svg version="1.1" id="Layer_1" xmlns="http://www.w3.org/2000/svg" xmlns:xlink="http://www.w3.org/1999/xlink" x="0px" y="0px"
	 viewBox="0 0 96.11 90.72" style="enable-background:new 0 0 96.11 90.72;" xml:space="preserve">
<style type="text/css">
	.st0{fill:#F7941D;}
</style>
<path class="st0" d="M11.79,51.11c0.42-0.99,0.85-1.98,1.25-2.98c2-5.06,3.99-10.12,5.99-15.19c0.67-1.71,1.7-2.17,3.4-1.51
	c1.71,0.67,3.42,1.35,5.13,2.02c1.06,0.41,1.62,1.15,1.62,2.32c0,0.17,0.17,0.41,0.33,0.49c1.34,0.66,2.73,0.99,4.27,1.02
	c2.96,0.05,5.95,0,8.83,0.93c0.17,0.05,0.44-0.04,0.61-0.16c0.26-0.19,0.48-0.45,0.71-0.69c1.44-1.49,3.19-2.02,5.22-1.68
	c1.14,0.19,2.28,0.37,3.42,0.55c0.76,0.12,1.19,0.58,1.13,1.19c-0.07,0.65-0.61,1.03-1.41,0.91c-1.29-0.18-2.56-0.4-3.85-0.59
	c-1.08-0.17-2.01,0.14-2.78,0.9c-3.07,3.05-6.31,5.89-9.93,8.29c-0.63,0.42-0.63,0.82-0.05,1.29c1.23,1.02,2.61,1.1,4.07,0.66
	c1.9-0.57,3.44-1.73,4.91-3c1.38-1.19,2.57-1.17,3.85,0.09c2.98,2.92,6.52,4.24,10.69,3.67c0.61-0.09,1.08,0.07,1.57,0.43
	c2.8,2.09,5.61,4.15,8.47,6.26c1.5-0.96,3-1.93,4.56-2.92c-2.01-5.11-4.02-10.18-6.04-15.31c-0.69,0.25-1.35,0.44-1.96,0.72
	c-2.12,0.96-4.31,1.15-6.57,0.64c-0.55-0.13-1.12-0.18-1.67-0.28c-0.72-0.13-1.09-0.57-1.02-1.2c0.07-0.62,0.55-0.98,1.28-0.9
	c0.77,0.09,1.55,0.2,2.31,0.36c1.47,0.31,2.9,0.21,4.3-0.37c0.72-0.3,1.46-0.53,2.18-0.83c0.15-0.06,0.32-0.32,0.32-0.48
	c0-1.13,0.52-1.87,1.57-2.27c1.82-0.71,3.63-1.45,5.45-2.16c1.31-0.51,2.47-0.02,2.99,1.29c0.91,2.25,1.79,4.51,2.68,6.77
	c0.29,0.75,0.07,1.35-0.55,1.58c-0.59,0.22-1.12-0.07-1.41-0.81c-0.81-2.03-1.61-4.07-2.42-6.11c-0.1-0.26-0.22-0.51-0.34-0.81
	c-1.95,0.77-3.88,1.53-5.84,2.31c2.44,6.18,4.85,12.29,7.29,18.48c1.97-0.77,3.88-1.53,5.86-2.3c-0.75-1.91-1.48-3.76-2.21-5.62
	c-0.15-0.37-0.31-0.74-0.44-1.12c-0.19-0.58,0.06-1.15,0.57-1.36c0.55-0.23,1.15-0.01,1.39,0.61c0.92,2.27,1.83,4.55,2.68,6.84
	c0.36,0.97-0.09,2.11-1.04,2.52c-2.04,0.87-4.1,1.67-6.18,2.45c-0.67,0.25-1.34,0.07-1.95-0.34c-0.17-0.11-0.5-0.18-0.65-0.09
	c-1.27,0.77-2.51,1.59-3.74,2.38c0.78,4.04-1.06,6.25-4.94,5.96c-0.82,2.94-1.92,3.79-5.09,3.9c-0.13,1.38-0.68,2.57-1.88,3.37
	c-1.17,0.78-2.45,0.91-3.84,0.49c-0.41,1.96-1.5,3.25-3.48,3.67c-2.01,0.43-3.4-0.76-4.9-1.92c-0.28,0.32-0.56,0.64-0.83,0.95
	c-1.06,1.23-2.38,1.76-3.98,1.36c-1.59-0.4-2.53-1.46-2.89-3.06c-0.04-0.17-0.25-0.42-0.39-0.43c-2.32-0.11-3.55-1.4-3.98-3.57
	c-2.73-0.36-3.81-1.28-4.26-3.64c-3.73-0.62-5.12-2.82-3.71-5.99c-0.24-0.18-0.49-0.38-0.76-0.55c-1.37-0.88-2.74-1.75-4.14-2.59
	c-0.2-0.12-0.53-0.05-0.8-0.05c-0.61,0.02-1.29,0.25-1.83,0.06c-1.94-0.67-3.82-1.48-5.74-2.22c-0.72-0.28-1.07-0.87-1.41-1.49
	V51.11z M44.85,65.05c3.81-0.1,5.63,4.05,3.01,6.88c0.76,0.45,1.46,0.99,2.25,1.31c0.93,0.37,1.99-0.18,2.42-1.09
	c0.43-0.91,0.21-1.79-0.61-2.43c-0.58-0.45-1.17-0.88-1.73-1.35c-0.62-0.53-0.58-1.34,0.06-1.73c0.49-0.3,0.94-0.16,1.37,0.17
	c1.12,0.86,2.23,1.74,3.38,2.56c1.07,0.76,2.38,0.54,3.07-0.45c0.66-0.95,0.42-2.12-0.59-2.9c-0.88-0.68-1.77-1.34-2.63-2.03
	c-0.56-0.44-0.65-1.07-0.27-1.55c0.39-0.49,0.97-0.55,1.57-0.12c0.31,0.22,0.6,0.46,0.9,0.69c1.02,0.77,2.01,1.57,3.05,2.3
	c1.03,0.73,2.34,0.49,3.01-0.46c0.62-0.88,0.47-2.25-0.56-2.92c-1.08-0.71-2.1-1.53-3.08-2.38c-0.27-0.23-0.47-0.75-0.41-1.09
	c0.05-0.31,0.46-0.7,0.77-0.77c0.32-0.07,0.78,0.12,1.08,0.34c1.47,1.07,2.89,2.21,4.35,3.28c0.37,0.27,0.83,0.48,1.27,0.54
	c0.92,0.14,1.82-0.45,2.14-1.29c0.36-0.92,0.04-1.94-0.87-2.62c-2.63-1.95-5.27-3.9-7.93-5.83c-0.25-0.18-0.65-0.29-0.96-0.26
	c-4.59,0.41-8.49-1.09-11.78-4.26c-0.44-0.42-0.69-0.45-1.15-0.04c-1.61,1.44-3.37,2.67-5.45,3.33c-2.09,0.67-4.1,0.54-5.93-0.8
	c-2.03-1.48-1.93-3.58,0.1-5.04c2.02-1.46,3.96-3.05,5.93-4.59c0.15-0.12,0.27-0.28,0.46-0.48c-0.44-0.09-0.76-0.19-1.09-0.21
	c-2.24-0.14-4.47-0.32-6.71-0.38c-1.2-0.03-2.34-0.17-3.44-0.66c-0.49-0.21-0.99-0.4-1.53-0.63c-2.07,5.25-4.12,10.44-6.17,15.65
	c1.93,1.23,3.81,2.42,5.71,3.63c0.58-0.68,1.12-1.34,1.7-1.95c1.05-1.11,2.34-1.49,3.81-1.1c1.5,0.39,2.42,1.39,2.79,2.89
	c0.05,0.2,0.11,0.4,0.16,0.59c1.1-0.03,2.05,0.24,2.87,0.93c0.83,0.7,1.21,1.64,1.39,2.67C43.13,61.57,44.41,62.67,44.85,65.05
	 M19.77,54.03c2.44-6.19,4.86-12.31,7.29-18.49c-1.99-0.78-3.9-1.54-5.86-2.31c-2.44,6.19-4.86,12.31-7.29,18.49
	C15.88,52.5,17.79,53.26,19.77,54.03 M30.04,62.87c0.16-0.08,0.61-0.17,0.85-0.43c1.03-1.13,2.04-2.28,2.98-3.5
	c0.53-0.69,0.31-1.66-0.36-2.22c-0.65-0.55-1.66-0.58-2.25,0.05c-1.02,1.11-2,2.26-2.93,3.44c-0.43,0.54-0.39,1.2-0.04,1.8
	C28.62,62.59,29.14,62.87,30.04,62.87 M38.52,61.77c-0.09-0.75-0.5-1.4-1.14-1.67c-0.68-0.29-1.46-0.14-2,0.46
	c-0.88,0.98-1.73,1.99-2.57,3.01c-0.7,0.84-0.63,1.87,0.12,2.52c0.76,0.66,1.79,0.57,2.51-0.25c0.86-0.97,1.7-1.95,2.52-2.97
	C38.21,62.56,38.33,62.14,38.52,61.77 M45.23,67.12c-0.39,0.19-0.88,0.29-1.15,0.59c-1.01,1.09-1.97,2.22-2.89,3.38
	c-0.54,0.68-0.36,1.67,0.28,2.24c0.67,0.6,1.69,0.65,2.31-0.01c1.02-1.1,2-2.26,2.93-3.44c0.41-0.51,0.38-1.16,0.07-1.74
	C46.46,67.55,45.95,67.25,45.23,67.12 M38.38,70.24c0.39-0.2,0.87-0.3,1.14-0.6c0.99-1.07,1.94-2.18,2.85-3.33
	c0.57-0.71,0.4-1.72-0.26-2.29c-0.68-0.6-1.68-0.64-2.31,0.04c-1.01,1.09-1.96,2.22-2.89,3.38c-0.43,0.54-0.43,1.19-0.09,1.8
	C37.15,69.81,37.65,70.12,38.38,70.24"/>
</svg>
