<?xml version="1.0" encoding="utf-8"?>
<!-- Generator: Adobe Illustrator 26.3.1, SVG Export Plug-In . SVG Version: 6.00 Build 0)  -->
<svg version="1.1" id="Layer_1" xmlns="http://www.w3.org/2000/svg" xmlns:xlink="http://www.w3.org/1999/xlink" x="0px" y="0px"
	 viewBox="0 0 96.11 90.72" style="enable-background:new 0 0 96.11 90.72;" xml:space="preserve">
<style type="text/css">
	.st0{fill:#F7941D;}
</style>
<g>
	<path class="st0" d="M46.89,5.6c0.83,0.57,1.18,2.46,0.62,3.29c-0.44,0.65-1.39,0.65-1.84,0c-0.57-0.83-0.21-2.72,0.62-3.29H46.89z
		"/>
	<path class="st0" d="M50.07,69.69v6.43h1.46c2.29,0,4.58-0.01,6.87,0c1.13,0,1.48,0.37,1.49,1.49c0.01,0.98,0,1.96,0,3.06h0.83
		c3.22,0,6.45,0,9.67,0c0.25,0,0.51-0.01,0.75,0.04c0.57,0.11,0.89,0.5,0.91,1.06c0.03,0.56-0.28,0.97-0.83,1.11
		c-0.28,0.08-0.6,0.06-0.9,0.06c-15.84,0-31.68,0-47.51,0c-1.16,0-1.72-0.36-1.74-1.12c-0.02-0.78,0.55-1.16,1.76-1.16h9.52h0.9
		c0-1.07-0.01-2.07,0-3.07c0.01-1.12,0.37-1.49,1.49-1.49c2.49-0.01,4.98,0,7.48,0h0.86v-6.43h-0.97H16.75
		c-1.48,0-1.66-0.28-1.77-1.76c-0.3-3.89,0.77-7.58,1.55-11.31c1.49-7.11,2.99-14.22,4.5-21.33c0.24-1.15,0.51-1.37,1.69-1.37
		c6.02,0,12.04,0,18.06,0h29.38c1.58,0,1.76,0.14,2.08,1.66c1.96,9.3,3.97,18.59,5.82,27.91c0.34,1.7,0.13,3.51,0.05,5.27
		c-0.01,0.31-0.57,0.67-0.94,0.89c-0.23,0.14-0.59,0.05-0.89,0.05H51.03H50.07z M75.86,65.13h-0.94c-15.53,0-31.06,0-46.59,0
		c-0.3,0-0.61,0.02-0.9-0.03c-0.56-0.11-0.89-0.47-0.93-1.04c-0.03-0.58,0.27-0.96,0.81-1.13c0.23-0.07,0.5-0.07,0.75-0.07
		c2.17,0,4.33,0,6.49,0h0.82c0.17-2.51,0.34-4.91,0.5-7.23c-0.12-0.09-0.14-0.12-0.16-0.12c-5.41-0.01-10.82-0.02-16.23-0.01
		c-0.16,0-0.42,0.2-0.46,0.35c-0.51,2.3-0.99,4.61-1.49,7.01h0.88c1.38,0,2.77-0.01,4.15,0.01c0.77,0.01,1.24,0.48,1.24,1.14
		c0,0.66-0.47,1.11-1.24,1.12c-1.21,0.02-2.42,0.01-3.62,0.01h-1.63v2.24h58.55V65.13z M55,55.54H38.17
		C38,58,37.83,60.4,37.66,62.82h17.85C55.34,60.38,55.17,57.98,55,55.54 M75.63,62.83c-0.52-2.47-1.03-4.89-1.54-7.3h-16.8
		c0.17,2.47,0.34,4.88,0.52,7.3H75.63z M54.83,53.17c-0.17-2.47-0.34-4.87-0.51-7.3H38.85c-0.17,2.44-0.34,4.85-0.5,7.3H54.83z
		 M36.55,45.98c-0.13-0.09-0.15-0.12-0.17-0.12c-4.95-0.01-9.9-0.02-14.86,0c-0.16,0-0.43,0.24-0.47,0.41
		c-0.51,2.28-0.98,4.56-1.48,6.89h16.48C36.22,50.75,36.38,48.36,36.55,45.98 M57.12,53.17h16.47c-0.52-2.45-1.02-4.84-1.54-7.28
		H56.61C56.78,48.34,56.95,50.74,57.12,53.17 M39.52,36.26c-0.17,2.44-0.34,4.83-0.51,7.25h15.14c-0.17-2.44-0.34-4.83-0.51-7.25
		H39.52z M37.24,36.21c-4.63,0-9.13,0.01-13.63-0.01c-0.46,0-0.52,0.26-0.59,0.61c-0.43,2.07-0.87,4.13-1.3,6.19
		c-0.03,0.16-0.02,0.33-0.03,0.49h15.05C36.9,41.06,37.06,38.69,37.24,36.21 M71.56,43.51c-0.47-2.22-0.95-4.37-1.37-6.54
		c-0.11-0.59-0.32-0.77-0.92-0.77c-4.17,0.03-8.35,0.01-12.53,0.02c-0.24,0-0.49,0.02-0.82,0.04c0.18,2.44,0.34,4.84,0.51,7.25
		H71.56z M57.58,78.45H35.61v2.18h21.97V78.45z M47.69,69.75h-2.19v6.33h2.19V69.75z"/>
	<path class="st0" d="M46.58,23.11c-3.1,0-5.74-2.64-5.7-5.73c0.03-3.12,2.68-5.74,5.75-5.68c3.11,0.06,5.65,2.61,5.67,5.69
		C52.31,20.47,49.68,23.11,46.58,23.11 M46.62,13.98c-1.85-0.03-3.42,1.5-3.46,3.37c-0.05,1.85,1.56,3.49,3.43,3.49
		c1.85,0,3.41-1.56,3.42-3.42C50.03,15.57,48.48,14.01,46.62,13.98"/>
	<path class="st0" d="M47.74,27.33c-0.02,0.29-0.02,0.59-0.07,0.89c-0.09,0.6-0.47,0.94-1.07,0.95c-0.64,0.01-1.06-0.34-1.11-0.99
		c-0.05-0.59-0.04-1.2,0.01-1.8c0.05-0.61,0.48-0.95,1.06-0.96c0.63-0.01,1.03,0.35,1.12,0.99C47.72,26.71,47.72,27.01,47.74,27.33"
		/>
	<path class="st0" d="M39.02,8.75c0.72-0.01,2.24,1.47,2.23,2.19c0,0.84-0.98,1.44-1.67,0.95c-0.56-0.4-1.08-0.91-1.48-1.47
		C37.6,9.72,38.17,8.77,39.02,8.75"/>
	<path class="st0" d="M52.83,12.07c-0.16-0.13-0.58-0.3-0.73-0.61c-0.14-0.31-0.15-0.84,0.04-1.1c0.38-0.54,0.87-1.04,1.42-1.43
		c0.71-0.51,1.65,0.04,1.67,0.89C55.25,10.55,53.78,12.07,52.83,12.07"/>
	<path class="st0" d="M36.67,16.25c0.32,0.02,0.65,0.01,0.97,0.07c0.57,0.09,0.89,0.47,0.92,1.03c0.03,0.56-0.25,1.02-0.81,1.1
		c-0.66,0.09-1.35,0.09-2.01,0.03c-0.6-0.05-0.93-0.49-0.92-1.09c0.02-0.63,0.38-1.02,1.02-1.09c0.27-0.03,0.55,0,0.83,0
		C36.67,16.28,36.67,16.27,36.67,16.25"/>
	<path class="st0" d="M56.53,16.26c0.27,0.02,0.55,0.01,0.83,0.04c0.61,0.07,0.96,0.45,0.99,1.04c0.03,0.59-0.27,1.05-0.87,1.12
		c-0.64,0.07-1.3,0.07-1.94,0.01c-0.61-0.06-0.94-0.49-0.93-1.09c0.01-0.63,0.38-1.02,1.02-1.09c0.3-0.03,0.6,0,0.9,0V16.26"/>
	<path class="st0" d="M41.26,23.66c-0.02,0.9-1.49,2.43-2.18,2.36c-0.35-0.04-0.82-0.27-0.96-0.55c-0.16-0.31-0.14-0.87,0.05-1.16
		c0.33-0.51,0.8-0.98,1.31-1.32c0.29-0.19,0.84-0.2,1.17-0.06C40.96,23.05,41.13,23.5,41.26,23.66"/>
	<path class="st0" d="M55.23,25.18c-0.11,0.14-0.28,0.56-0.59,0.7c-0.31,0.14-0.84,0.15-1.11-0.03c-0.54-0.38-1.04-0.88-1.42-1.42
		c-0.18-0.26-0.17-0.82-0.01-1.1c0.17-0.28,0.62-0.52,0.97-0.55C53.78,22.7,55.22,24.22,55.23,25.18"/>
</g>
</svg>
