<?xml version="1.0" encoding="utf-8"?>
<!-- Generator: Adobe Illustrator 26.3.1, SVG Export Plug-In . SVG Version: 6.00 Build 0)  -->
<svg version="1.1" id="Layer_1" xmlns="http://www.w3.org/2000/svg" xmlns:xlink="http://www.w3.org/1999/xlink" x="0px" y="0px"
	 viewBox="0 0 96.11 90.72" style="enable-background:new 0 0 96.11 90.72;" xml:space="preserve">
<style type="text/css">
	.st0{fill:#F7941D;}
</style>
<g>
	<path class="st0" d="M84.02,75.94c-0.39,0.9-1.09,1.16-2.04,1.15c-6.21-0.03-12.42-0.02-18.62-0.02H62.4
		c0,0.53,0.02,1.02-0.01,1.51c-0.06,1.07-0.6,1.6-1.67,1.6c-6.42,0.01-12.84,0-19.26,0c-0.82,0-1.3-0.43-1.28-1.09
		c0.02-0.64,0.48-1.02,1.27-1.03c0.71-0.01,1.41,0,2.27,0c-0.24-0.41-0.42-0.75-0.63-1.08c-0.31-0.48-0.32-0.94-0.07-1.46
		c0.6-1.26,1.19-2.52,1.74-3.79c0.13-0.29,0.14-0.64,0.23-1.09c-0.89,0.36-1.49,0.07-2.09-0.32c-1.14-0.76-2.3-1.47-3.44-2.24
		c-0.32-0.22-0.56-0.24-0.89-0.03c-0.68,0.46-1.41,0.86-2.08,1.33c-0.78,0.55-1.22,1.32-1.23,2.28c-0.02,2.1,0,4.2,0,6.39
		c0.36,0,0.7-0.01,1.05,0c0.62,0.04,1.05,0.45,1.08,1.01c0.03,0.58-0.41,1.06-1.06,1.1c-0.57,0.03-1.13,0.03-1.7,0
		c-0.9-0.05-1.42-0.56-1.5-1.47c-0.04-0.51-0.01-1.03-0.01-1.63h-0.91H13.53c-1.55,0-2.02-0.48-2.02-2.04
		c0-1.91,0.03-3.82-0.01-5.74c-0.05-2.34,0.93-4.09,2.92-5.28c1.52-0.91,3.04-1.81,4.56-2.71c0.22-0.13,0.43-0.27,0.55-0.35
		c-0.68-1.13-1.45-2.17-1.95-3.32c-0.41-0.95-0.62-2.04-0.67-3.07c-0.1-2.16-0.1-4.34,0.01-6.51c0.06-1.2,0.31-2.43,0.69-3.58
		c0.49-1.47,1.59-2.42,3.12-2.81c0.15-0.04,0.33-0.09,0.44-0.19c2.21-1.97,4.78-2.01,7.46-1.34c1.67,0.42,3.17,1.21,4.43,2.41
		c1.56,1.49,2.41,3.28,2.38,5.47c-0.03,2.08-0.03,4.15,0,6.23c0.04,2.43-0.95,4.43-2.45,6.24c-0.1,0.13-0.2,0.25-0.33,0.4
		c2.25,1.38,4.48,2.73,6.84,4.17c0.47-0.28,1.11-0.66,1.78-1.06c-1.26-1.43-2.23-2.95-2.63-4.77c-0.03-0.12-0.07-0.23-0.07-0.35
		c0.03-3.23-0.08-6.47,0.17-9.68c0.17-2.19,1.37-3.9,3.72-4.47c0.11-0.03,0.23-0.08,0.31-0.15c2.23-2,4.82-2.03,7.52-1.34
		c1.69,0.44,3.2,1.25,4.46,2.48c1.49,1.45,2.29,3.2,2.28,5.3c-0.01,2.19,0,4.39,0,6.58c0,2.21-0.92,4.06-2.27,5.74
		c-0.16,0.2-0.33,0.4-0.53,0.64c0.65,0.39,1.27,0.77,1.77,1.07c2.33-1.42,4.58-2.8,6.85-4.19c-1.17-1.34-2.11-2.76-2.54-4.48
		c-0.07-0.27-0.16-0.55-0.17-0.83c-0.04-3.27-0.37-6.56,0.23-9.81c0.38-2.05,1.49-3.61,3.68-4.12c0.11-0.03,0.23-0.08,0.31-0.15
		c2.2-1.99,4.78-2.04,7.45-1.36c2.13,0.54,3.97,1.62,5.33,3.39c0.97,1.25,1.49,2.66,1.48,4.26c-0.01,2.05-0.06,4.11,0.01,6.16
		c0.08,2.48-0.84,4.55-2.36,6.42c-0.12,0.14-0.24,0.29-0.36,0.43c-0.01,0.02-0.02,0.04-0.05,0.13c1.26,0.75,2.54,1.5,3.81,2.26
		c0.45,0.26,0.89,0.54,1.34,0.79c1.62,0.94,2.63,2.33,2.98,4.17V75.94z M40.65,56.34c-0.02,0.21-0.04,0.32-0.05,0.44
		c-0.11,3.42,2.18,6.73,5.47,7.98c1.21,0.46,2.4,0.44,3.57-0.08c2.3-1.03,3.93-2.72,4.9-5.04c0.51-1.24,0.38-2.53,0.35-3.91
		c-1.92,0.15-3.35-0.75-4.52-2.04c-1.52-1.66-3.39-2.08-5.52-1.89c-0.42,0.03-0.66,0.2-0.75,0.59c-0.06,0.25-0.12,0.5-0.17,0.76
		C43.59,54.95,42.8,56.31,40.65,56.34 M62.22,53.25c0,0.61-0.01,1.13,0,1.64c0,0.19,0.03,0.38,0.07,0.56
		c0.83,3.23,2.87,5.37,6.02,6.37c0.67,0.22,1.53,0.18,2.21-0.03c2.93-0.92,4.88-2.92,5.77-5.83c0.31-1.02,0.21-2.17,0.3-3.33
		c-1.55,0.07-2.75-0.4-3.8-1.29c-0.34-0.29-0.7-0.57-1-0.89c-1.22-1.32-2.7-1.88-4.51-1.75c-1.54,0.11-1.41-0.26-1.77,1.44
		C65.14,51.93,64.31,53.2,62.22,53.25 M18.97,53.25c0.05,0.83-0.03,1.58,0.15,2.27c0.78,3.09,2.77,5.13,5.72,6.24
		c0.97,0.37,1.95,0.29,2.9-0.08c2.36-0.92,4.01-2.59,5.08-4.86c0.63-1.33,0.52-2.73,0.46-4.21c-1.99,0.17-3.39-0.85-4.64-2.13
		c-1.27-1.3-2.72-1.93-4.56-1.79c-1.54,0.12-1.4-0.26-1.77,1.44C21.93,51.94,21.1,53.2,18.97,53.25 M72.13,67.54
		c0.07,0.42,0.05,0.73,0.16,0.97c0.45,1.03,0.88,2.09,1.43,3.07c0.59,1.05,0.73,2.01-0.1,2.98c-0.07,0.08-0.09,0.2-0.15,0.35h8.39
		c0-2.2,0.04-4.36-0.02-6.52c-0.02-0.89-0.5-1.62-1.24-2.13c-0.66-0.45-1.36-0.84-2.02-1.29c-0.34-0.23-0.6-0.22-0.95,0.02
		c-1.11,0.75-2.25,1.46-3.37,2.2C73.65,67.59,73.04,67.91,72.13,67.54 M23.38,67.54c-0.86,0.36-1.44,0.09-2.01-0.28
		c-1.02-0.67-2.09-1.29-3.07-2.01c-0.62-0.45-1.06-0.41-1.75-0.07c-2.14,1.06-3.2,2.61-2.95,5.08c0.16,1.53,0.03,3.09,0.03,4.65
		h8.43c-0.13-0.24-0.2-0.45-0.33-0.6c-0.6-0.76-0.55-1.51-0.1-2.36c0.58-1.1,1.07-2.25,1.57-3.39
		C23.32,68.29,23.31,67.97,23.38,67.54 M60.29,78.03V73.7c0-3.55-0.2-3.87-3.31-5.62c-0.39-0.22-0.65-0.19-1.01,0.05
		c-1.12,0.75-2.26,1.46-3.38,2.2c-0.59,0.39-1.19,0.69-2.07,0.3c0.08,0.44,0.08,0.76,0.2,1.03c0.55,1.25,1.11,2.5,1.71,3.72
		c0.3,0.61,0.31,1.16-0.08,1.72c-0.19,0.27-0.33,0.58-0.53,0.92H60.29z M54.91,53.55c0-0.95,0.01-1.87,0-2.79
		c-0.02-1.32-0.55-2.42-1.47-3.34c-1.31-1.31-2.91-2.07-4.73-2.34c-1.8-0.27-3.49-0.1-4.8,1.38c-0.15,0.17-0.45,0.26-0.69,0.3
		c-1.07,0.15-1.82,0.76-2.1,1.75c-0.28,0.98-0.41,2.02-0.5,3.05c-0.08,0.87-0.02,1.76-0.02,2.63c0.71,0.04,0.95-0.29,1.08-0.77
		c0.17-0.66,0.31-1.33,0.54-1.97c0.37-1.09,1.16-1.7,2.33-1.74c0.71-0.03,1.41-0.02,2.12-0.03c1.53-0.01,2.86,0.51,4.02,1.49
		c0.67,0.56,1.3,1.16,1.97,1.72C53.27,53.4,53.97,53.7,54.91,53.55 M76.52,50.45c0-0.87-0.01-1.74,0-2.6
		c0.02-1.32-0.45-2.45-1.34-3.39c-1.37-1.44-3.07-2.25-5.02-2.5c-1.72-0.22-3.35-0.05-4.6,1.38c-0.14,0.16-0.4,0.28-0.62,0.3
		c-1.4,0.16-2.21,1.05-2.41,2.32c-0.27,1.68-0.31,3.4-0.45,5.1c0.81,0.11,1.08-0.27,1.21-0.79c0.18-0.66,0.3-1.34,0.53-1.97
		c0.39-1.08,1.19-1.67,2.36-1.69c0.71-0.01,1.41,0,2.12-0.01c1.4-0.02,2.65,0.42,3.73,1.29c0.7,0.56,1.35,1.17,2.03,1.76
		C74.75,50.22,75.5,50.62,76.52,50.45 M18.89,51.07c0.85,0.07,1.08-0.33,1.22-0.85c0.18-0.66,0.3-1.34,0.53-1.97
		c0.39-1.05,1.18-1.62,2.31-1.65c0.57-0.02,1.13,0.02,1.7-0.02c1.93-0.12,3.54,0.61,4.94,1.89c0.55,0.51,1.11,1.02,1.71,1.48
		c0.57,0.45,1.23,0.65,2.02,0.48c0-0.87-0.01-1.71,0-2.55c0.02-1.37-0.48-2.54-1.42-3.5c-1.35-1.38-3.01-2.17-4.91-2.42
		c-1.74-0.23-3.4-0.06-4.66,1.39c-0.13,0.15-0.36,0.25-0.56,0.28c-1.47,0.16-2.27,1.1-2.47,2.43
		C19.06,47.69,19.02,49.37,18.89,51.07 M37.39,66.2c-0.78-0.46-1.51-0.93-2.27-1.33c-0.15-0.08-0.45-0.01-0.62,0.1
		c-1.06,0.66-2.1,1.35-3.15,2.02c-0.7,0.45-1.37,1.03-2.48,0.52c0.11,0.5,0.12,0.8,0.23,1.05c0.54,1.22,1.09,2.45,1.69,3.65
		c0.35,0.69,0.33,1.29-0.12,1.91c-0.17,0.23-0.29,0.5-0.45,0.78h2.83C32.99,69.98,32.71,69.36,37.39,66.2 M65.29,74.93
		c-0.13-0.26-0.2-0.44-0.31-0.58c-0.62-0.78-0.6-1.54-0.13-2.42c0.59-1.1,1.08-2.26,1.57-3.4c0.11-0.26,0.09-0.58,0.13-0.87
		c-0.07,0.05-0.14,0.11-0.22,0.17c-0.58-0.19-1.2-0.28-1.71-0.58c-1.22-0.71-2.38-1.52-3.58-2.28c-0.16-0.1-0.43-0.22-0.56-0.16
		c-0.79,0.43-1.55,0.91-2.41,1.43c0.38,0.23,0.62,0.38,0.86,0.51c2.48,1.31,3.7,3.34,3.48,6.18c-0.05,0.65-0.01,1.31-0.01,1.99
		H65.29z M47.54,78.06c0.47,0,0.73-0.04,0.98,0.01c0.6,0.1,0.88-0.21,1.22-0.67c0.64-0.87,0.7-1.65,0.1-2.55
		c-0.26-0.39-0.48-0.83-0.59-1.28c-0.25-1.07-0.93-1.31-1.91-1.19c-0.36,0.04-0.59,0.08-0.75,0.46c-0.42,1-0.91,1.96-1.35,2.95
		c-0.07,0.17-0.11,0.43-0.03,0.58C45.75,77.4,46.18,78.58,47.54,78.06 M69.34,74.87c1.28,0.43,1.93-0.21,2.4-1.28
		c0.18-0.4,0.26-0.7,0.05-1.1c-0.34-0.65-0.7-1.29-0.91-1.98c-0.31-1.02-0.91-1.39-1.96-1.25c-0.38,0.05-0.58,0.15-0.74,0.49
		c-0.42,0.97-0.89,1.92-1.31,2.89c-0.08,0.19-0.13,0.47-0.04,0.64C67.35,74.33,67.82,75.48,69.34,74.87 M26.15,74.95
		c0.26,0,0.52-0.03,0.77,0.01c0.59,0.09,0.88-0.2,1.22-0.67c0.65-0.88,0.67-1.66,0.09-2.55c-0.25-0.39-0.4-0.85-0.6-1.27
		c-0.57-1.24-0.57-1.25-1.97-1.17c-0.22,0.02-0.53,0.2-0.62,0.39c-0.5,0.98-0.95,1.99-1.39,3c-0.07,0.17-0.1,0.42-0.03,0.58
		c0.6,1.51,0.86,1.67,2.45,1.67H26.15z M54.45,66.59c-0.63-0.38-1.17-0.7-1.71-1.01c-0.08-0.04-0.23-0.06-0.32-0.01
		c-0.81,0.45-1.62,0.91-2.46,1.38c0.43,0.45,0.84,0.91,1.28,1.33c0.1,0.1,0.37,0.15,0.47,0.09C52.6,67.81,53.47,67.23,54.45,66.59
		 M41.08,66.59c1.05,0.68,2,1.3,2.99,1.94c0.53-0.57,1.02-1.08,1.51-1.59c-0.85-0.47-1.6-0.9-2.36-1.31
		c-0.12-0.07-0.33-0.11-0.44-0.05C42.23,65.88,41.71,66.22,41.08,66.59 M32.84,63.5c-0.63-0.38-1.16-0.71-1.7-1.02
		c-0.08-0.05-0.24-0.05-0.32-0.01c-0.82,0.44-1.62,0.9-2.46,1.37c0.5,0.53,0.98,1.04,1.5,1.59C30.84,64.79,31.79,64.18,32.84,63.5
		 M76.05,63.5c-0.7-0.42-1.28-0.77-1.83-1.1c-0.9,0.48-1.76,0.94-2.68,1.42c0.5,0.54,0.99,1.06,1.51,1.61
		C74.05,64.79,75,64.18,76.05,63.5 M23.96,63.83c-0.82-0.46-1.59-0.9-2.38-1.32c-0.11-0.06-0.28-0.1-0.37-0.05
		c-0.56,0.31-1.11,0.65-1.74,1.03c1.08,0.69,2.04,1.31,3.01,1.93C23.02,64.85,23.49,64.34,23.96,63.83 M65.68,65.43
		c0.53-0.57,1.01-1.08,1.51-1.61c-0.9-0.48-1.77-0.94-2.68-1.42c-0.55,0.34-1.14,0.7-1.81,1.1C63.73,64.17,64.67,64.78,65.68,65.43
		 M69.34,64.64c-0.23,0.24-0.41,0.5-0.66,0.67c-0.65,0.47-0.38,1.07-0.15,1.57c0.08,0.19,0.58,0.21,0.89,0.27
		c0.22,0.04,0.46,0.01,0.67,0.01C70.63,65.87,70.6,65.8,69.34,64.64 M26.14,64.64c-0.24,0.25-0.42,0.51-0.67,0.68
		c-0.63,0.45-0.39,1.03-0.16,1.51c0.1,0.21,0.59,0.25,0.92,0.32c0.22,0.04,0.46,0.01,0.67,0.01C27.41,65.83,27.4,65.79,26.14,64.64
		 M47.76,67.81c-1.33,1.26-1.27,0.91-0.73,2.42h1.52C48.98,68.76,48.98,68.76,47.76,67.81"/>
	<path class="st0" d="M61.27,24.64c-0.04,7.54-5.76,13.65-13.46,14.12c-7.27,0.45-13.63-4.72-14.75-12.08
		c-0.27-1.79-0.18-3.57,0.25-5.34c0.25-1.02,0.68-1.43,1.35-1.29c0.73,0.16,0.97,0.74,0.72,1.76c-1.38,5.63,1.45,11.5,6.78,13.79
		c4.57,1.96,8.93,1.38,12.7-1.85c3.83-3.28,5.11-7.56,3.74-12.4c-1.35-4.75-4.65-7.67-9.52-8.53c-4.48-0.79-8.27,0.71-11.27,4.14
		c-0.11,0.13-0.2,0.26-0.31,0.39c-0.49,0.55-1.07,0.63-1.56,0.24c-0.47-0.38-0.52-1.01-0.08-1.58c2.16-2.77,4.96-4.55,8.41-5.22
		c7.96-1.54,15.34,3.55,16.76,11.52C61.16,23.08,61.19,23.86,61.27,24.64"/>
	<path class="st0" d="M44.94,26.78c1.73-2.06,3.41-4.06,5.09-6.07c0.3-0.36,0.6-0.73,0.91-1.08c0.48-0.55,1.07-0.64,1.55-0.26
		c0.5,0.4,0.55,1.04,0.06,1.63c-1.84,2.21-3.69,4.41-5.54,6.62c-0.35,0.41-0.69,0.84-1.05,1.24c-0.54,0.6-1.06,0.66-1.67,0.15
		c-1.16-0.96-2.31-1.94-3.45-2.93c-0.52-0.45-0.58-1.03-0.2-1.5c0.38-0.48,1.02-0.53,1.57-0.1c0.46,0.36,0.9,0.76,1.35,1.14
		C43.99,25.99,44.43,26.35,44.94,26.78"/>
</g>
</svg>
