<?xml version="1.0" encoding="utf-8"?>
<!-- Generator: Adobe Illustrator 26.3.1, SVG Export Plug-In . SVG Version: 6.00 Build 0)  -->
<svg version="1.1" id="Layer_1" xmlns="http://www.w3.org/2000/svg" xmlns:xlink="http://www.w3.org/1999/xlink" x="0px" y="0px"
	 viewBox="0 0 96.11 90.72" style="enable-background:new 0 0 96.11 90.72;" xml:space="preserve">
<style type="text/css">
	.st0{fill:#F89521;}
</style>
<g>
	<g>
		<path class="st0" d="M80.35,70.76c-0.39-0.01-0.79,0-1.23,0c0-0.35,0-0.61,0-0.86c0-4.47,0.01-8.93-0.01-13.4
			c0-0.58-0.08-1.19-0.25-1.74c-0.67-2.13-2.49-3.35-4.96-3.35c-5.47-0.01-10.95-0.01-16.42,0.01c-0.62,0-0.78-0.19-0.84-0.79
			c-0.27-2.72-0.6-5.44-0.93-8.16c-0.11-0.91-0.65-1.37-1.37-1.27c-0.74,0.1-1.15,0.68-1.05,1.57c0.21,1.85,0.44,3.7,0.65,5.56
			c0.12,1,0.21,2.01,0.32,3.05c-4.72,0-9.38,0-14.08,0c-0.15-1.25-0.29-2.47-0.43-3.68c-0.36-3.12-0.69-6.24-1.08-9.36
			c-0.36-2.91-0.63-5.79-0.2-8.73c0.63-4.32,1.05-8.67,1.55-13.01c0.13-1.13,0.45-1.45,1.57-1.45c2.44,0,4.88,0.01,7.32-0.01
			c0.8,0,1.32-0.48,1.36-1.16c0.04-0.7-0.43-1.28-1.22-1.28c-2.75-0.02-5.5-0.05-8.24,0.05c-1.58,0.06-2.83,1.3-3.14,2.83
			c-0.1,0.48-0.13,0.98-0.18,1.48c-0.19,1.66-0.39,3.31-0.58,4.97c-0.45-3.08-0.81-6.15-1.14-9.22c-0.13-1.2-0.49-2.27-1.5-3
			c-0.41-0.3-0.89-0.5-1.34-0.74c-3.18,0-6.35,0-9.53,0c-0.07,0.05-0.14,0.12-0.22,0.15c-1.58,0.55-2.41,1.68-2.6,3.3
			c-0.73,6.4-1.44,12.8-2.17,19.19c-0.69,6-1.41,11.99-2.07,17.99c-0.2,1.78-0.3,3.57-0.31,5.36c-0.04,4.96-0.01,9.92-0.01,14.88
			c0,0.25,0,0.51,0,0.83c-0.51,0-0.96-0.03-1.4,0.01c-1.47,0.13-2.52,0.86-3.15,2.19c-0.1,0.21-0.19,0.41-0.29,0.62
			c0,1.75,0,3.5,0,5.25c0.08,0.17,0.16,0.33,0.23,0.5c0.58,1.44,1.85,2.33,3.41,2.33c21.85,0,43.69,0,65.54,0
			c2.03,0,3.6-1.58,3.61-3.6c0.01-1.23,0.01-2.46,0-3.69C83.94,72.38,82.38,70.81,80.35,70.76z M18.48,53.52
			c0.05-2.4,0.44-4.79,0.71-7.18c0.39-3.52,0.81-7.03,1.21-10.55c0.41-3.54,0.81-7.08,1.22-10.62c0.4-3.49,0.8-6.99,1.2-10.48
			c0.08-0.7,0.17-1.41,0.26-2.11c0.09-0.74,0.57-1.09,1.26-1.09c2.53-0.02,5.07-0.02,7.61,0c0.8,0.01,1.2,0.38,1.3,1.2
			c0.34,2.76,0.65,5.53,0.97,8.3c0.4,3.49,0.8,6.99,1.2,10.48c0.41,3.54,0.81,7.08,1.22,10.62c0.31,2.7,0.62,5.39,0.93,8.09
			c0.04,0.37,0.06,0.74,0.1,1.23c-0.39,0-0.67,0-0.95,0c-3.44,0-6.87,0-10.31,0c-0.26,0-0.52,0-0.78,0.03
			c-0.68,0.08-1.08,0.53-1.09,1.17c-0.01,0.63,0.4,1.14,1.04,1.23c0.28,0.04,0.57,0.02,0.85,0.02c15.78,0,31.56,0.02,47.34-0.02
			c1.88-0.01,2.97,1.12,2.95,2.96c-0.06,4.37-0.02,8.74-0.02,13.12c0,0.26,0,0.51,0,0.8c-14.56,0-29.05,0-43.65,0
			c0-0.25,0-0.5,0-0.74c0-3.21,0-6.43,0-9.64c0-1.92-0.96-2.89-2.87-2.89c-1.73,0-3.46,0-5.19,0c-1.99,0-2.89,0.91-2.89,2.91
			c0,3.19,0,6.38,0,9.57c0,0.25,0,0.51,0,0.8c-1.23,0-2.38,0-3.64,0c0-0.25,0-0.5,0-0.75C18.45,64.49,18.38,59,18.48,53.52z
			 M30.5,59.94c0,3.6,0,7.17,0,10.78c-1.97,0-3.92,0-5.92,0c0-3.58,0-7.15,0-10.78C26.58,59.94,28.51,59.94,30.5,59.94z
			 M80.25,79.25c-0.24,0.02-0.47,0-0.71,0c-10.66,0-21.32,0-31.98,0c-10.71,0-21.41,0-32.12,0c-1.49,0-1.84-0.35-1.85-1.83
			c0-0.92-0.01-1.84,0-2.76c0.01-0.98,0.45-1.41,1.43-1.45c0.17-0.01,0.33,0,0.5,0c21.37,0,42.73,0,64.1,0
			c0.24,0,0.48-0.01,0.71,0.01c0.75,0.08,1.17,0.49,1.2,1.25c0.03,1.16,0.03,2.32,0,3.47C81.52,78.74,81.05,79.2,80.25,79.25z
			 M50.26,28.98c1.58,9.02,10.24,15.21,19.27,13.8c9.12-1.43,15.41-9.7,14.31-18.8c-0.86-7.13-6.11-12.93-13.09-14.49
			c-0.66-0.15-1.33-0.28-1.99-0.42c-1.18,0-2.37,0-3.55,0c-0.27,0.06-0.54,0.13-0.81,0.17C54.97,10.66,48.61,19.56,50.26,28.98z
			 M66.99,11.47c8,0.01,14.56,6.55,14.55,14.53c-0.01,7.97-6.58,14.52-14.57,14.52c-8,0-14.55-6.55-14.55-14.53
			C52.42,18.01,58.99,11.47,66.99,11.47z M39.19,67.17c1.54,0.02,3.08,0.02,4.62,0c1.47-0.02,2.5-0.95,2.56-2.4
			c0.06-1.65,0.06-3.31,0-4.96c-0.06-1.37-1.03-2.32-2.37-2.36c-1.66-0.04-3.32-0.05-4.97,0c-1.38,0.04-2.36,1.1-2.38,2.49
			c-0.01,0.78,0,1.56,0,2.34c0,0.76-0.01,1.51,0,2.27C36.65,66.11,37.64,67.15,39.19,67.17z M39.13,59.95c1.59,0,3.14,0,4.73,0
			c0,1.58,0,3.12,0,4.71c-1.59,0-3.14,0-4.73,0C39.13,63.08,39.13,61.54,39.13,59.95z M52.56,67.17c1.54,0.02,3.08,0.02,4.62,0
			c1.46-0.02,2.47-0.97,2.52-2.43c0.05-1.63,0.05-3.26,0-4.89c-0.04-1.45-1.06-2.39-2.52-2.42c-0.76-0.01-1.52,0-2.27,0
			c-0.81,0-1.61-0.02-2.41,0c-1.47,0.04-2.48,1.06-2.49,2.53c-0.01,1.54-0.01,3.07,0,4.61C50,66.13,51,67.15,52.56,67.17z
			 M52.46,59.95c1.59,0,3.14,0,4.74,0c0,1.55,0,3.09,0,4.69c-1.57,0-3.13,0-4.74,0C52.46,63.08,52.46,61.54,52.46,59.95z
			 M65.78,67.17c1.61,0.04,3.22,0.04,4.83,0c1.42-0.03,2.39-1.03,2.43-2.44c0.02-0.8,0-1.61,0-2.41c0-0.83,0.02-1.65-0.01-2.48
			c-0.04-1.36-1.02-2.36-2.39-2.39c-1.63-0.04-3.27-0.04-4.9,0c-1.4,0.03-2.38,1.07-2.39,2.47c-0.01,1.58-0.01,3.16,0,4.75
			C63.36,66.1,64.34,67.13,65.78,67.17z M65.81,59.96c1.59,0,3.15,0,4.75,0c0,1.58,0,3.14,0,4.71c-1.61,0-3.16,0-4.75,0
			C65.81,63.09,65.81,61.55,65.81,59.96z M61.55,27.21c0.58-0.01,1.17,0,1.78,0c-0.27,2.46-0.52,4.83-0.79,7.2
			c-0.13,1.15,0.17,1.9,0.96,2.3c0.79,0.4,1.57,0.18,2.39-0.67c0.69-0.72,1.38-1.43,2.07-2.15c1.89-1.96,3.77-3.92,5.66-5.87
			c0.59-0.61,0.86-1.3,0.51-2.12c-0.35-0.81-1.01-1.14-1.88-1.1c-0.51,0.02-1.03,0-1.59,0c0.06-0.59,0.1-1.11,0.16-1.62
			c0.21-2.06,0.45-4.13,0.63-6.2c0.07-0.8-0.39-1.46-1.09-1.73c-0.73-0.28-1.41-0.17-1.96,0.4c-2.75,2.84-5.48,5.68-8.21,8.54
			c-0.54,0.56-0.66,1.25-0.32,1.97C60.18,26.86,60.76,27.22,61.55,27.21z M68.79,18.75c-0.08,0.87-0.12,1.53-0.19,2.19
			c-0.17,1.55-0.35,3.09-0.52,4.64c-0.12,1.06,0.38,1.61,1.44,1.62c0.42,0,0.85,0,1.47,0c-1.96,2.04-3.81,3.96-5.65,5.88
			c-0.05-0.02-0.11-0.04-0.16-0.06c0.17-1.62,0.34-3.23,0.52-4.85c0.07-0.68,0.17-1.36,0.21-2.04c0.04-0.84-0.44-1.32-1.28-1.35
			c-0.49-0.01-0.97,0-1.64,0C64.94,22.75,66.78,20.83,68.79,18.75z"/>
	</g>
</g>
</svg>
