<?xml version="1.0" encoding="utf-8"?>
<!-- Generator: Adobe Illustrator 26.3.1, SVG Export Plug-In . SVG Version: 6.00 Build 0)  -->
<svg version="1.1" id="Layer_1" xmlns="http://www.w3.org/2000/svg" xmlns:xlink="http://www.w3.org/1999/xlink" x="0px" y="0px"
	 viewBox="0 0 96.11 90.72" style="enable-background:new 0 0 96.11 90.72;" xml:space="preserve">
<style type="text/css">
	.st0{fill:#F89521;}
</style>
<g>
	<g>
		<path class="st0" d="M83,74.65c-0.33-0.36-0.32-0.73-0.32-1.17l0-16.71c0-10.36,0-20.71,0-31.07c0-7.09-4.3-12.82-10.95-14.61
			c-0.56-0.15-1.15-0.26-1.71-0.36c-0.26-0.05-0.52-0.1-0.78-0.15l-2.45,0l-0.04,0c-0.23,0.05-0.46,0.09-0.7,0.13
			c-0.5,0.09-1.01,0.19-1.52,0.31c-6.04,1.39-10.82,7-11.1,13.05c-0.13,2.71-0.12,5.47-0.11,8.14c0,1.2,0.01,2.4,0,3.59
			c-0.01,1,0.55,1.25,1.03,1.29c0.25,0.02,0.48-0.05,0.66-0.22c0.25-0.23,0.38-0.6,0.38-1.07c0.01-1.19,0-2.39,0-3.58l0-2.15h10.33
			V74.1h-8.15v-3.02c0-4.25,0-8.5,0-12.76v-0.05c0-0.27,0-0.56-0.05-0.84c-0.06-0.32-0.21-0.57-0.44-0.71
			c-0.2-0.12-0.42-0.15-0.66-0.08c-0.28,0.08-0.57,0.35-0.84,0.79c-0.11,0.18-0.09,0.41-0.08,0.61c0.01,0.07,0.01,0.13,0.01,0.19
			c0,4.23,0,8.45,0,12.68v3.17h-7.21l0-4.32c0-3.37,0-6.74,0-10.11c0-1.16-0.28-1.44-1.43-1.44c-5.53,0-11.06,0-16.59,0
			c-1.3,0-1.54,0.25-1.54,1.54c0,3.33,0,6.65,0,9.98l0,4.36h-7.21l0-3.91c0-4.09,0-8.18,0-12.27c0-0.37,0-1.23-0.98-1.31
			c-0.28-0.02-0.51,0.05-0.7,0.22c-0.24,0.22-0.37,0.59-0.39,1.1c0,0.14,0,0.27,0,0.41l0,15.81l-1.87,0c-1.13,0-2.26,0-3.38,0
			c-0.01,0-0.01,0-0.02,0c-0.75,0-1.16,0.33-1.21,0.99c-0.02,0.28,0.06,0.52,0.22,0.71c0.21,0.24,0.56,0.37,1.01,0.38
			c0.08,0,0.17,0,0.25,0l67.1,0c0.06,0,0.11,0,0.17,0c0.06,0,0.12,0,0.18,0c0.13,0,0.26-0.01,0.39-0.03
			c0.4-0.07,0.74-0.36,0.87-0.73C83.27,75.17,83.21,74.87,83,74.65z M44.53,60.33l-6.02,5.47l-6.03-5.47H44.53z M30.82,61.63
			l6.14,5.59l-6.14,5.57V61.63z M32.45,74.11l6.06-5.51l6.06,5.51H32.45z M46.21,72.8l-6.16-5.58l6.16-5.59V72.8z M55.45,27.9
			c-0.72-2.85,0.13-6.55,2.24-9.7c1.81-2.69,4.25-4.51,6.6-4.93c-2.38,4.61-2.56,9.55-2.51,14.63H55.45z M63.86,27.91
			c0-0.34,0-0.67-0.01-1.01c-0.01-0.88-0.02-1.72,0.01-2.57c0.09-2.43,0.34-5.59,1.58-8.61c0.35-0.86,0.85-1.7,1.44-2.43
			c0.34-0.42,0.69-0.64,1.05-0.66c0.37-0.02,0.77,0.2,1.19,0.64c0.95,1,1.42,2.29,1.79,3.41c1.22,3.71,1.3,7.58,1.2,11.22H63.86z
			 M75.79,40.97h-7.95v-4.52h7.95V40.97z M75.8,43.15v4.49h-7.95v-4.49H75.8z M75.78,34.31h-7.91v-4.24h7.91V34.31z M67.84,49.83
			h7.97v4.5h-7.97V49.83z M67.86,56.51h7.94v4.5h-7.94V56.51z M75.8,74.12h-7.93v-4.25h7.93V74.12z M75.82,67.7h-7.95v-4.51h7.95
			V67.7z M80.57,74.1h-2.61V30.05h2.61V74.1z M80.56,27.91h-6.35c0.05-5.07-0.12-10.01-2.52-14.64c2.28,0.42,4.46,1.92,6.16,4.24
			C80.1,20.55,81.1,24.43,80.56,27.91z M15.89,57.31c0.12,0.01,0.23,0.01,0.35,0.01c1.33,0,2.38-0.66,2.97-1.87
			c0.73-1.52,1.46-3.04,2.19-4.57c0.73-1.53,1.45-3.06,2.19-4.58c0.13-0.28,0.36-0.54,0.6-0.69c2.36-1.49,4.71-2.97,7.07-4.46
			c2.28-1.43,4.56-2.86,6.83-4.3c0.33-0.21,0.52-0.21,0.85,0c2.3,1.45,4.59,2.9,6.89,4.34c2.32,1.46,4.64,2.92,6.95,4.38
			c0.26,0.16,0.51,0.45,0.65,0.74c1.31,2.71,2.7,5.62,4.24,8.89c0.61,1.3,1.6,2.05,2.78,2.11l0.01,0c0,0,0.01,0,0.01,0
			c1.32,0,2.45-0.57,3.08-1.57c0.6-0.95,0.66-2.11,0.16-3.19c-1.74-3.77-3.35-7.14-4.9-10.31c-0.3-0.61-0.81-1.19-1.36-1.54
			c-4.55-2.89-9.2-5.81-13.69-8.63l-3.39-2.13c-1.24-0.78-2.49-0.77-3.74,0.01l-3.11,1.95c-4.57,2.87-9.29,5.83-13.92,8.78
			c-0.57,0.36-1.07,0.91-1.34,1.46c-2.05,4.19-3.59,7.43-4.98,10.51c-0.27,0.6-0.33,1.47-0.16,2.32
			C13.38,56.22,14.55,57.21,15.89,57.31z M15.08,53.77c0.05-0.16,0.11-0.39,0.21-0.59l0.39-0.82c1.4-2.97,2.85-6.04,4.31-9.04
			c0.19-0.38,0.53-0.76,0.89-0.99c2.82-1.79,5.65-3.57,8.48-5.35c2.71-1.7,5.42-3.41,8.12-5.12c0.74-0.47,1.34-0.47,2.07-0.01
			c2.81,1.78,5.63,3.55,8.45,5.32c2.7,1.7,5.4,3.4,8.1,5.1c0.39,0.25,0.72,0.59,0.88,0.92c1.11,2.28,2.21,4.61,3.28,6.86
			c0.51,1.08,1.03,2.17,1.55,3.25c0.28,0.58,0.26,1.05-0.06,1.47c-0.26,0.34-0.69,0.64-1.13,0.44c-0.45-0.2-0.87-0.58-1.05-0.94
			c-0.81-1.64-1.61-3.33-2.39-4.96c-0.64-1.35-1.31-2.75-1.97-4.11c-0.24-0.49-0.64-0.94-1.06-1.21c-2.31-1.47-4.67-2.95-6.96-4.39
			c-2.48-1.56-5.04-3.17-7.55-4.76c-0.4-0.26-0.77-0.39-1.13-0.39c-0.36,0-0.72,0.13-1.12,0.39c-2.61,1.67-5.28,3.34-7.85,4.96
			c-2.22,1.39-4.44,2.79-6.65,4.19c-0.43,0.27-0.83,0.72-1.06,1.21c-1.02,2.09-2.03,4.22-3.01,6.29c-0.44,0.93-0.88,1.87-1.33,2.8
			c-0.37,0.77-0.77,1.04-1.44,0.95c-0.58-0.08-0.99-0.62-1.01-1.34C15.05,53.86,15.06,53.82,15.08,53.77z M82.37,78.62
			c-0.17-0.11-0.4-0.09-0.6-0.08c-0.07,0.01-0.14,0.01-0.2,0.01l-33.46,0l-33.53,0c-0.06,0-0.13-0.01-0.2-0.01
			c-0.2-0.02-0.43-0.04-0.6,0.08c-0.49,0.32-0.74,0.63-0.76,0.91c-0.02,0.36,0.34,0.74,0.64,1c0.12,0.1,0.27,0.12,0.43,0.12
			c0.07,0,0.14,0,0.21-0.01c0.06,0,0.12-0.01,0.18-0.01c22.4,0,44.8,0,67.21,0c0.05,0,0.11,0,0.17,0.01
			c0.22,0.01,0.47,0.03,0.64-0.11c0.3-0.26,0.66-0.64,0.64-1C83.11,79.25,82.86,78.94,82.37,78.62z M18.21,26.82
			c1.55,0.01,3.11,0.01,4.67,0.01c1.85,0,3.69,0,5.5-0.01l0.25,0c0.37,0,0.74,0,1.1,0c1.15,0.01,2.34,0.01,3.51-0.08
			c3.06-0.23,5.55-2.74,5.79-5.82c0.25-3.18-1.83-6.09-4.83-6.78c-0.83-0.19-1.7-0.21-2.54-0.22c-0.2,0-0.4-0.01-0.59-0.01
			c-0.44-0.01-0.66-0.12-0.88-0.45c-2-2.92-5.86-3.68-8.77-1.73c-1.85,1.24-2.83,3.08-2.9,5.47l-0.24,0.01
			c-0.27,0.01-0.53,0.02-0.78,0.04c-1.26,0.08-2.47,0.74-3.3,1.82c-0.84,1.07-1.19,2.4-0.96,3.65
			C13.7,25.27,15.56,26.81,18.21,26.82z M15.75,20.43c0.44-0.62,1.1-1.02,1.8-1.09c0.4-0.04,0.81-0.04,1.21-0.04
			c0.25,0,0.51,0,0.76-0.01c0.46-0.02,0.77-0.15,0.97-0.39c0.2-0.24,0.26-0.58,0.18-1.03c-0.35-2.15,0.8-4.15,2.8-4.87
			c0.49-0.17,0.98-0.26,1.47-0.26c1.56,0,3.02,0.85,3.79,2.31c0.36,0.68,0.84,0.96,1.57,0.94c1.03-0.02,1.96-0.03,2.87,0.07
			c2.15,0.23,3.78,2.06,3.79,4.25c0.01,2.21-1.6,4.09-3.75,4.37c-0.42,0.05-0.88,0.08-1.46,0.08c-1.58,0.01-3.15,0.01-4.73,0
			l-1.72,0c-0.72,0-1.44,0-2.17,0c-1.61,0-3.28,0.01-4.91-0.01c-1.55-0.01-2.59-0.79-2.93-2.2C15.14,21.84,15.3,21.07,15.75,20.43z
			 M33.74,52.72c0.01,1.04,0.36,1.4,1.36,1.41c1.11,0,2.23,0.01,3.35,0.01c1.15,0,2.3,0,3.46-0.01c0.97,0,1.36-0.38,1.36-1.34
			c0.01-2.15,0.01-4.39,0-6.83c0-0.99-0.4-1.38-1.4-1.38c-2.24-0.01-4.49-0.01-6.73,0c-1.01,0-1.39,0.38-1.4,1.38
			c-0.01,0.78-0.01,1.56,0,2.34l0,1.01l0,1.03C33.74,51.13,33.73,51.92,33.74,52.72z M35.84,46.7h5.31v5.33h-5.31V46.7z M32.6,19.3
			c0.68,0.08,1.02,0.44,1.12,1.18c0.07,0.56,0.44,0.89,0.98,0.89c0.04,0,0.08,0,0.12-0.01c0.6-0.05,0.95-0.46,0.95-1.13
			c0-1.51-1.4-2.93-2.94-2.99c-0.66-0.08-1.12,0.26-1.21,0.87c-0.04,0.3,0.02,0.56,0.17,0.76C31.96,19.11,32.24,19.25,32.6,19.3z"/>
	</g>
</g>
</svg>
