<?xml version="1.0" encoding="utf-8"?>
<!-- Generator: Adobe Illustrator 26.3.1, SVG Export Plug-In . SVG Version: 6.00 Build 0)  -->
<svg version="1.1" id="Layer_1" xmlns="http://www.w3.org/2000/svg" xmlns:xlink="http://www.w3.org/1999/xlink" x="0px" y="0px"
	 viewBox="0 0 96.11 90.72" style="enable-background:new 0 0 96.11 90.72;" xml:space="preserve">
<style type="text/css">
	.st0{fill:#F89521;}
</style>
<g>
	<g>
		<path class="st0" d="M83.22,47.44c-2.28-1.77-4.55-3.55-6.85-5.3c-0.42-0.32-0.59-0.64-0.58-1.17c0.03-2.91,0.02-5.81,0.01-8.72
			c-0.01-1.68-0.98-2.61-2.67-2.62c-1.47,0-2.94,0-4.41,0c-1.66,0.01-2.62,0.98-2.63,2.65c0,0.58,0,1.15,0,1.84
			c-0.25-0.18-0.38-0.27-0.5-0.37c-2.54-1.97-5.08-3.95-7.63-5.92c-1.1-0.85-1.99-0.89-3.04-0.08c-8.5,6.58-16.99,13.16-25.47,19.75
			c-1.2,0.93-1.32,2.13-0.39,3.34c0.61,0.79,1.23,1.56,1.84,2.35c1.08,1.39,1.92,1.57,3.48,0.74c0.03-0.01,0.08,0.02,0.11,0.03
			c0,5.17,0,10.34,0,15.59c-0.34,0-0.64,0.02-0.94,0c-0.54-0.04-1.1-0.04-1.62-0.15c-3.58-0.75-5.84-3.6-5.85-7.4
			c-0.01-6.81,0-13.61-0.01-20.42c0-0.48,0.13-0.74,0.57-1c2.46-1.45,3.97-3.59,4.19-6.45c0.17-2.14,0.1-4.3,0.1-6.45
			c0-0.46,0.09-0.74,0.55-0.99c1.22-0.66,1.86-1.76,1.86-3.13c0-1.4-0.65-2.51-1.91-3.17c-0.41-0.22-0.51-0.46-0.5-0.88
			c0.02-2.2,0.01-4.4,0.01-6.59c0-1.31-0.45-2.41-1.53-3.19c-0.39-0.28-0.85-0.47-1.28-0.7c-0.57,0-1.14,0-1.71,0
			c-0.16,0.08-0.32,0.17-0.48,0.24c-1.53,0.66-2.31,1.84-2.33,3.47c-0.03,2.1-0.01,4.2-0.01,6.3c0,0.26,0,0.52,0,0.83
			c-0.79,0-1.53,0-2.36,0c-0.01-0.25-0.04-0.5-0.04-0.75c0-1.86-0.07-3.73,0.02-5.59c0.11-2.23-0.73-3.78-2.91-4.51
			c-0.52,0-1.04,0-1.56,0c-1.36,0.53-2.43,1.33-2.75,2.85c-0.07,0.32-0.08,0.65-0.09,0.98c-0.01,2.24,0,4.48-0.02,6.72
			c0,0.22-0.1,0.57-0.25,0.64c-1.14,0.52-1.74,1.47-2.16,2.57c0,0.52,0,1.04,0,1.56c0.41,0.99,0.91,1.93,1.95,2.4
			c0.4,0.18,0.48,0.42,0.48,0.81c-0.02,1.89-0.04,3.78,0,5.67c0.06,3.2,1.48,5.66,4.24,7.3c0.49,0.29,0.61,0.59,0.61,1.11
			c-0.01,6.64-0.01,13.28,0,19.92c0,0.82,0.05,1.65,0.13,2.47c0.59,6.03,5.58,11.43,11.59,12.48c1.32,0.23,2.66,0.28,4.06,0.42
			c0,0.48,0,1,0,1.51c0.01,1.91,1.3,3.2,3.21,3.2c12.44,0,24.89,0,37.33,0c0.28,0,0.57-0.02,0.84-0.09
			c1.52-0.39,2.33-1.55,2.33-3.37c0-7.82,0-15.65,0-23.47c0-0.27,0-0.54,0-0.87c1.7,0.91,2.54,0.73,3.66-0.7
			c0.6-0.76,1.2-1.53,1.79-2.3C84.65,49.62,84.49,48.42,83.22,47.44z M68.49,33.8c0.09-0.54,0.01-1.12,0.01-1.71
			c1.63,0,3.18,0,4.81,0c0,2.55,0,5.04,0,7.66c-1.06-0.82-1.99-1.67-3.04-2.31C68.85,36.58,68.2,35.46,68.49,33.8z M26.07,12.7
			c0.01-0.74,0.53-1.24,1.2-1.22c0.66,0.01,1.15,0.52,1.15,1.26c0.01,2.26,0.01,4.53,0,6.79c0,0.11-0.03,0.22-0.06,0.37
			c-0.75,0-1.47,0-2.22,0c-0.03-0.1-0.08-0.19-0.08-0.27C26.06,17.33,26.05,15.02,26.07,12.7z M16.32,13.11
			c0-0.32,0.03-0.67,0.16-0.96c0.23-0.5,0.68-0.74,1.22-0.64c0.59,0.11,1,0.49,1.01,1.11c0.02,2.4,0.01,4.81,0.01,7.29
			c-0.83,0-1.57,0-2.36,0c-0.02-0.24-0.04-0.44-0.04-0.65C16.31,17.21,16.31,15.16,16.32,13.11z M15.38,24.79
			c-0.89,0-1.47-0.48-1.48-1.19c-0.02-0.73,0.58-1.22,1.51-1.22c2.34,0,4.69,0,7.03,0c2.32,0,4.64,0,6.96,0
			c0.94,0,1.44,0.41,1.45,1.17c0.01,0.78-0.51,1.23-1.48,1.23C24.7,24.79,20.04,24.79,15.38,24.79z M16.39,33.94
			c-0.05-0.37-0.07-0.75-0.07-1.13c-0.01-1.84,0-3.68,0-5.57c4.08,0,8.06,0,12.11,0c0,1.58,0.01,3.13,0,4.69
			c-0.01,0.83,0.05,1.67-0.11,2.47c-0.61,3.08-3.17,5.01-6.37,4.88C19.15,39.16,16.78,36.89,16.39,33.94z M34.49,74.39
			c-1.98,0.09-3.9-0.09-5.7-0.88c-4.85-2.13-7.49-5.87-7.58-11.14c-0.12-6.76-0.03-13.52-0.03-20.27c0-0.11,0.02-0.23,0.04-0.38
			c0.77,0,1.52,0,2.36,0c0,0.26,0,0.54,0,0.81c0,6.59-0.02,13.19,0.01,19.78c0.01,4.41,2.94,8.22,7.21,9.33
			c1.17,0.31,2.42,0.34,3.7,0.51C34.49,72.85,34.49,73.58,34.49,74.39z M75.77,78.12c0,1.03-0.11,1.14-1.14,1.14
			c-12.16,0-24.32,0-36.48,0c-1.05,0-1.2-0.15-1.2-1.17c0-8.51-0.01-17.02,0.02-25.53c0-0.32,0.15-0.77,0.39-0.95
			c6.19-4.84,12.4-9.65,18.61-14.46c0.13-0.1,0.26-0.19,0.42-0.3c2.45,1.89,4.88,3.77,7.31,5.66c3.82,2.96,7.62,5.93,11.45,8.87
			c0.46,0.35,0.63,0.71,0.63,1.29C75.77,61.16,75.77,69.64,75.77,78.12z M79.79,51.88c-1.24-0.95-2.45-1.89-3.66-2.83
			c-6.23-4.83-12.45-9.66-18.68-14.49c-0.89-0.69-1.25-0.69-2.13-0.01c-7.16,5.55-14.33,11.11-21.49,16.66
			c-0.26,0.2-0.53,0.4-0.86,0.66c-0.66-0.84-1.28-1.64-1.95-2.5c8.46-6.56,16.88-13.1,25.36-19.67
			c8.44,6.54,16.87,13.08,25.36,19.66C81.09,50.21,80.46,51.02,79.79,51.88z M62.38,59.85c-0.7,0.02-1.39,0-2.11,0
			c0.4-3.3,0.78-6.49,1.16-9.67c0.09-0.76-0.12-1.4-0.7-1.91c-0.9-0.79-2.09-0.65-3.01,0.35c-3.03,3.32-6.05,6.64-9.09,9.95
			c-0.69,0.75-0.99,1.56-0.57,2.52c0.42,0.94,1.23,1.25,2.2,1.24c0.7-0.01,1.41,0,2.19,0c-0.09,0.74-0.16,1.39-0.24,2.04
			c-0.31,2.5-0.63,5.01-0.91,7.51c-0.13,1.18,0.34,2,1.25,2.38c0.89,0.37,1.72,0.11,2.52-0.77c3-3.28,5.98-6.58,8.99-9.85
			c0.7-0.77,1.03-1.59,0.59-2.57C64.22,60.1,63.38,59.83,62.38,59.85z M53.87,71.19c0.4-3.34,0.77-6.5,1.16-9.66
			c0.13-1.08-0.34-1.66-1.45-1.67c-0.87-0.01-1.74,0-2.79,0c2.72-2.98,5.32-5.82,7.91-8.67c0.04,0.02,0.09,0.04,0.13,0.06
			c-0.16,1.37-0.33,2.74-0.49,4.1c-0.21,1.73-0.45,3.46-0.63,5.2c-0.14,1.33,0.3,1.78,1.63,1.78c0.8,0,1.6,0,2.61,0
			C59.21,65.33,56.6,68.2,53.87,71.19z"/>
	</g>
</g>
</svg>
