<?xml version="1.0" encoding="utf-8"?>
<!-- Generator: Adobe Illustrator 26.3.1, SVG Export Plug-In . SVG Version: 6.00 Build 0)  -->
<svg version="1.1" id="Layer_1" xmlns="http://www.w3.org/2000/svg" xmlns:xlink="http://www.w3.org/1999/xlink" x="0px" y="0px"
	 viewBox="0 0 96.11 90.72" style="enable-background:new 0 0 96.11 90.72;" xml:space="preserve">
<style type="text/css">
	.st0{fill:#F89521;}
</style>
<g>
	<g>
		<path class="st0" d="M82.29,61.75c0,0.83,0.39,1.31,1.04,1.32c0.66,0.01,1.07-0.48,1.07-1.29c0-12.98,0-25.95,0-38.93
			c0-0.96-0.36-1.31-1.33-1.31c-2.53,0-5.06,0-7.59,0c-0.91,0-1.15,0.18-1.43,1.05c-0.61,1.93-1.25,3.85-1.82,5.8
			c-0.18,0.62-0.42,0.84-1.11,0.84c-5.44-0.03-10.87-0.02-16.31-0.02c-1.64,0-1.86,0.22-1.86,1.9c0,3.47,0,6.95,0,10.42
			c0,0.28,0,0.55,0,0.85c-4.93,0.94-9.78,1.87-14.68,2.81c0-0.28-0.01-0.45,0-0.61c0.2-3.16,0.41-6.32,0.59-9.48
			c0.03-0.46,0.21-0.59,0.65-0.59c2.29,0.02,4.58,0.01,6.88,0.01c0.13,0,0.27,0.04,0.44,0.08c0.04,0.51,0.08,1.01,0.12,1.5
			c0.07,1.04,0.1,2.08,0.22,3.11c0.11,0.91,0.97,1.31,1.66,0.84c0.5-0.35,0.5-0.85,0.46-1.4c-0.23-3.2-0.44-6.41-0.66-9.61
			c-0.2-3.04-0.39-6.08-0.6-9.12c-0.07-1-0.45-1.33-1.45-1.33c-2.48-0.01-4.96-0.01-7.45,0c-0.98,0-1.34,0.39-1.4,1.38
			c-0.1,1.67-0.2,3.35-0.31,5.02c-0.37,5.54-0.74,11.08-1.12,16.62c-0.09,1.34-0.2,2.68-0.3,4.03c-1.94,0.37-3.83,0.73-5.8,1.1
			c-0.07-1.04-0.14-2-0.2-2.96c-0.27-3.91-0.53-7.82-0.8-11.74c-0.18-2.62-0.36-5.23-0.55-7.85c-0.06-0.78-0.4-1.09-1.18-1.11
			c-0.52-0.02-1.04-0.02-1.56,0c-0.66,0.03-1.1,0.47-1.09,1.06c0,0.59,0.44,1.02,1.09,1.08c0.21,0.02,0.41,0.02,0.67,0.04
			c0.13,1.96,0.25,3.88,0.38,5.79c-2.34,0-4.57,0-6.85,0c0.13-1.96,0.26-3.86,0.4-5.79c0.18-0.03,0.29-0.03,0.4-0.06
			c0.6-0.16,0.96-0.55,0.89-1.18c-0.08-0.62-0.49-0.94-1.13-0.94c-0.38,0-0.76-0.02-1.13,0c-0.71,0.04-1.06,0.39-1.11,1.12
			c-0.28,4.01-0.56,8.01-0.83,12.02c-0.31,4.57-0.59,9.15-0.9,13.72c-0.07,1.12-0.17,2.25-0.26,3.37c-0.63,0.11-1.2,0.17-1.74,0.32
			c-0.99,0.27-2.14,0.09-2.94,0.97c0,5.53,0,11.06,0,16.59c0.36,0.6,0.91,0.71,1.57,0.71c21.96-0.01,43.91-0.01,65.87-0.01
			c1.3,0,2.6,0.01,3.9,0c0.88-0.01,1.26-0.39,1.27-1.25c0.01-1.18,0.01-2.36,0-3.55c0-0.81-0.43-1.3-1.08-1.28
			c-0.63,0.02-1.03,0.49-1.03,1.26c-0.01,0.87,0,1.74,0,2.63c-2.84,0-5.62,0-8.46,0c0-0.33,0-0.61,0-0.88c0-2.46,0.01-4.92,0-7.37
			c0-0.98-0.35-1.34-1.31-1.34c-2.53-0.01-5.06-0.01-7.59,0c-0.99,0-1.34,0.38-1.35,1.39c0,2.48,0,4.96,0,7.45c0,0.25,0,0.5,0,0.77
			c-2.84,0-5.59,0-8.35,0c0-12.79,0-25.53,0-38.28c9.05,0,18.04,0,27.07,0c0,0.34,0,0.62,0,0.91
			C82.29,42.13,82.29,51.94,82.29,61.75z M39.87,20.82c2.02,0,4.01,0,6.07,0c0.12,1.71,0.23,3.43,0.36,5.22c-2.31,0-4.49,0-6.77,0
			C39.65,24.29,39.76,22.58,39.87,20.82z M39.37,28.25c2.38,0,4.7,0,7.08,0c0.09,1.34,0.18,2.67,0.27,4.05c-2.56,0-5.02,0-7.6,0
			C39.2,30.94,39.28,29.62,39.37,28.25z M20.01,33.33c2.37,0,4.71,0,7.16,0c0.1,1.44,0.19,2.85,0.29,4.32c-2.58,0-5.1,0-7.74,0
			C19.81,36.23,19.91,34.81,20.01,33.33z M19.56,39.9c2.71,0,5.32,0,8.04,0c0.16,2.41,0.33,4.8,0.49,7.24
			c-1.4,0.27-2.76,0.53-4.12,0.78c-1.29,0.24-1.48,0.46-1.48,1.78c0,0.66,0.03,1.33-0.02,1.98c-0.02,0.21-0.24,0.53-0.42,0.57
			c-1.08,0.24-2.17,0.41-3.36,0.62C18.99,48.52,19.27,44.22,19.56,39.9z M52.94,69.69c-13,0-25.96,0-38.97,0c0-4.57,0-9.12,0-13.74
			c1.19-0.22,2.39-0.45,3.59-0.67c1.92-0.35,3.85-0.69,5.78-1.04c1.1-0.2,1.34-0.5,1.34-1.62c0-0.71,0.01-1.42-0.01-2.13
			c-0.01-0.37,0.1-0.54,0.49-0.61c7.97-1.51,15.93-3.03,23.89-4.56c1.27-0.24,2.54-0.49,3.88-0.76
			C52.94,53.02,52.94,61.33,52.94,69.69z M65.76,62.28c1.96,0,3.9,0,5.87,0c0,2.46,0,4.91,0,7.4c-1.95,0-3.87,0-5.87,0
			C65.76,67.2,65.76,64.77,65.76,62.28z M82.23,29.17c-2.67,0-5.28,0-7.99,0c0.43-1.39,0.85-2.73,1.27-4.07
			c0.46-1.45,0.46-1.45,1.97-1.45c1.57,0,3.15,0,4.75,0C82.23,25.54,82.23,27.36,82.23,29.17z M78.59,36.56
			c0-1.04-0.36-1.41-1.4-1.41c-2.84,0-5.67,0-8.51,0c-2.84,0-5.67,0-8.51,0c-0.93,0-1.31,0.35-1.32,1.26
			c-0.02,1.21-0.01,2.41,0,3.62c0.01,0.92,0.37,1.27,1.31,1.27c5.69,0.01,11.39,0.01,17.08,0c0.95,0,1.33-0.39,1.34-1.33
			C78.59,38.83,78.59,37.69,78.59,36.56z M76.38,39.09c-5.1,0-10.19,0-15.35,0c0-0.61,0-1.16,0-1.77c5.12,0,10.21,0,15.35,0
			C76.38,37.89,76.38,38.47,76.38,39.09z M71.01,57.78c2.1,0.02,4.2,0.02,6.31,0c0.86-0.01,1.26-0.42,1.27-1.27
			c0.01-1.2,0.01-2.41,0-3.61c-0.01-0.89-0.41-1.28-1.31-1.29c-1.04-0.01-2.08,0-3.12,0c-1.02,0-2.03-0.01-3.05,0
			c-0.93,0.01-1.31,0.37-1.32,1.26c-0.01,1.23-0.02,2.46,0,3.69C69.79,57.38,70.17,57.77,71.01,57.78z M71.96,53.79
			c1.49,0,2.94,0,4.43,0c0,0.59,0,1.14,0,1.75c-1.47,0-2.92,0-4.43,0C71.96,54.95,71.96,54.39,71.96,53.79z M66.4,51.61
			c-1.04-0.01-2.08,0-3.12,0c-1.06,0-2.13-0.01-3.19,0c-0.83,0.01-1.22,0.39-1.24,1.21c-0.02,1.25-0.02,2.5,0,3.76
			c0.01,0.82,0.39,1.2,1.24,1.21c2.1,0.02,4.2,0.02,6.31,0c0.85-0.01,1.25-0.43,1.26-1.28c0.01-1.2,0.01-2.41,0-3.61
			C67.65,52.03,67.24,51.62,66.4,51.61z M65.45,55.56c-1.47,0-2.91,0-4.41,0c0-0.58,0-1.13,0-1.75c1.45,0,2.89,0,4.41,0
			C65.45,54.37,65.45,54.94,65.45,55.56z M67.66,44.65c-0.01-0.86-0.41-1.26-1.26-1.27c-1.06-0.01-2.13,0-3.19,0
			c-1.02,0-2.03-0.01-3.05,0c-0.92,0.01-1.3,0.37-1.31,1.28c-0.02,1.2-0.02,2.41,0,3.61c0.01,0.89,0.36,1.27,1.24,1.27
			c2.1,0.02,4.2,0.02,6.31,0c0.85-0.01,1.25-0.42,1.26-1.28C67.67,47.06,67.67,45.85,67.66,44.65z M65.47,47.33
			c-1.48,0-2.92,0-4.41,0c0-0.57,0-1.15,0-1.77c1.45,0,2.9,0,4.41,0C65.47,46.19,65.47,46.74,65.47,47.33z M77.33,49.54
			c0.85-0.01,1.25-0.42,1.25-1.28c0.01-1.2,0.01-2.41,0-3.61c-0.01-0.86-0.41-1.26-1.26-1.27c-1.04-0.01-2.08,0-3.12,0
			c-1.06,0-2.13-0.01-3.19,0c-0.83,0.01-1.22,0.38-1.23,1.2c-0.02,1.23-0.02,2.46,0,3.68c0.01,0.89,0.36,1.27,1.24,1.27
			C73.13,49.56,75.23,49.56,77.33,49.54z M71.95,45.56c1.48,0,2.92,0,4.43,0c0,0.57,0,1.14,0,1.76c-1.46,0-2.91,0-4.43,0
			C71.95,46.71,71.95,46.16,71.95,45.56z M48.83,59.59c-0.21-0.02-0.42-0.01-0.64-0.01c-4.7,0-9.4,0-14.11,0c-4.75,0-9.5,0-14.25,0
			c-0.21,0-0.43-0.02-0.64,0.01c-0.61,0.09-1.01,0.41-1.01,1.07c-0.01,0.62,0.36,0.95,0.93,1.07c0.25,0.05,0.52,0.04,0.78,0.04
			c9.43,0,18.86,0,28.28,0c0.24,0,0.48,0.01,0.71-0.02c0.61-0.09,0.99-0.44,1.03-1.07C49.96,60.11,49.48,59.66,48.83,59.59z
			 M45.24,51.29c-0.76,0.01-1.13,0.38-1.15,1.14c-0.02,1.18-0.03,2.36,0,3.54c0.02,0.74,0.42,1.12,1.16,1.14c0.57,0.02,1.13,0,1.7,0
			c0.57,0,1.13,0,1.7,0c0.02,0,0.05,0,0.07,0c0.76-0.03,1.18-0.43,1.19-1.19c0.02-1.16,0.02-2.32,0-3.47
			c-0.01-0.74-0.41-1.14-1.14-1.16C47.61,51.27,46.42,51.27,45.24,51.29z M47.73,54.95c-0.48,0-0.92,0-1.45,0c0-0.5,0-0.96,0-1.47
			c0.47,0,0.93,0,1.45,0C47.73,53.95,47.73,54.43,47.73,54.95z M37.61,57.11c1.2,0.02,2.41,0.02,3.61,0
			c0.66-0.01,1.05-0.4,1.08-1.06c0.03-0.61,0.01-1.23,0.01-1.84c0-0.61,0.02-1.23,0-1.84c-0.03-0.68-0.39-1.05-1.07-1.06
			c-1.23-0.03-2.46-0.03-3.68,0c-0.66,0.01-1.05,0.42-1.06,1.08c-0.02,1.2-0.02,2.41,0,3.61C36.51,56.68,36.92,57.1,37.61,57.11z
			 M38.68,53.46c0.51,0,0.96,0,1.46,0c0,0.49,0,0.95,0,1.47c-0.47,0-0.94,0-1.46,0C38.68,54.46,38.68,54,38.68,53.46z M30.12,57.12
			c0.57,0.01,1.13,0,1.7,0c0.54,0,1.09,0,1.63,0c0.02,0,0.05,0,0.07,0c0.77-0.03,1.21-0.41,1.23-1.16c0.03-1.18,0.03-2.36,0-3.54
			c-0.02-0.71-0.41-1.1-1.11-1.11c-1.2-0.02-2.41-0.01-3.61,0c-0.68,0.01-1.08,0.38-1.1,1.04c-0.03,1.23-0.04,2.46,0,3.68
			C28.94,56.75,29.36,57.1,30.12,57.12z M31.12,53.47c0.47,0,0.93,0,1.43,0c0,0.49,0,0.95,0,1.46c-0.47,0-0.92,0-1.43,0
			C31.12,54.45,31.12,53.98,31.12,53.47z"/>
	</g>
</g>
</svg>
